# xmcd CD database file
#
# Track frame offsets:
#	150
#	13043
#	26667
#	39341
#	52894
#	71376
#	84931
#	99492
#
# Disc length: 1499 seconds
#
# Revision: 1
# Processed by: cddbd v1.5.2PL0 Copyright (c) Steve Scherf et al.
# Submitted via: CDex 1.70beta2
#
DISCID=5305d908
DTITLE=Compilation - jazz magazine - SWING A SONG PART 2
DYEAR=1900
DGENRE=Jazz
TTITLE0=Connie Boswell - There must be a way
TTITLE1=June Richmond - Fine and Mellow
TTITLE2=Maxine Sullivan - The hour of parting
TTITLE3=Marie Bryant - A pocketful of dreams
TTITLE4=June Christy - Juen Christy
TTITLE5=Peggy Lee - Trav'lin' light
TTITLE6=Mary Ann McCall - I got it bad
TTITLE7=Julie London - Cry me a river
EXTD=
EXTT0=
EXTT1=
EXTT2=
EXTT3=
EXTT4=
EXTT5=
EXTT6=
EXTT7=
PLAYORDER=
